<svg width="175" height="40" viewBox="0 0 175 40" fill="none" xmlns="http://www.w3.org/2000/svg">
<rect width="175" height="40" rx="8" fill="#E44269"/>
<circle cx="19" cy="20" r="3" fill="#F2F2F2"/>
<path d="M34.7102 14.9901V12.4545H46.6562V14.9901H42.2031V27H39.1634V14.9901H34.7102ZM61.326 19.7273C61.326 21.3134 61.0253 22.6629 60.424 23.7756C59.8274 24.8883 59.013 25.7382 57.9808 26.3253C56.9534 26.9077 55.7981 27.1989 54.5149 27.1989C53.2223 27.1989 52.0623 26.9053 51.0348 26.3182C50.0073 25.7311 49.1953 24.8812 48.5987 23.7685C48.0021 22.6558 47.7038 21.3087 47.7038 19.7273C47.7038 18.1411 48.0021 16.7917 48.5987 15.679C49.1953 14.5663 50.0073 13.7187 51.0348 13.1364C52.0623 12.5492 53.2223 12.2557 54.5149 12.2557C55.7981 12.2557 56.9534 12.5492 57.9808 13.1364C59.013 13.7187 59.8274 14.5663 60.424 15.679C61.0253 16.7917 61.326 18.1411 61.326 19.7273ZM58.2081 19.7273C58.2081 18.6998 58.0542 17.8333 57.7464 17.1278C57.4434 16.4223 57.0149 15.8873 56.4609 15.5227C55.907 15.1581 55.2583 14.9759 54.5149 14.9759C53.7715 14.9759 53.1229 15.1581 52.5689 15.5227C52.0149 15.8873 51.584 16.4223 51.2763 17.1278C50.9732 17.8333 50.8217 18.6998 50.8217 19.7273C50.8217 20.7547 50.9732 21.6212 51.2763 22.3267C51.584 23.0322 52.0149 23.5672 52.5689 23.9318C53.1229 24.2964 53.7715 24.4787 54.5149 24.4787C55.2583 24.4787 55.907 24.2964 56.4609 23.9318C57.0149 23.5672 57.4434 23.0322 57.7464 22.3267C58.0542 21.6212 58.2081 20.7547 58.2081 19.7273ZM68.7603 27H63.604V12.4545H68.8029C70.266 12.4545 71.5254 12.7457 72.5813 13.3281C73.6372 13.9058 74.4492 14.7367 75.0174 15.821C75.5903 16.9053 75.8768 18.2027 75.8768 19.7131C75.8768 21.2282 75.5903 22.5303 75.0174 23.6193C74.4492 24.7083 73.6325 25.544 72.5671 26.1264C71.5065 26.7088 70.2376 27 68.7603 27ZM66.6793 24.3651H68.6325C69.5415 24.3651 70.3062 24.2041 70.9265 23.8821C71.5515 23.5554 72.0202 23.0511 72.3327 22.3693C72.65 21.6828 72.8086 20.7973 72.8086 19.7131C72.8086 18.6383 72.65 17.7599 72.3327 17.0781C72.0202 16.3963 71.5539 15.8944 70.9336 15.5724C70.3133 15.2505 69.5487 15.0895 68.6396 15.0895H66.6793V24.3651ZM91.5213 19.7273C91.5213 21.3134 91.2206 22.6629 90.6193 23.7756C90.0227 24.8883 89.2083 25.7382 88.1761 26.3253C87.1487 26.9077 85.9934 27.1989 84.7102 27.1989C83.4176 27.1989 82.2576 26.9053 81.2301 26.3182C80.2027 25.7311 79.3906 24.8812 78.794 23.7685C78.1974 22.6558 77.8991 21.3087 77.8991 19.7273C77.8991 18.1411 78.1974 16.7917 78.794 15.679C79.3906 14.5663 80.2027 13.7187 81.2301 13.1364C82.2576 12.5492 83.4176 12.2557 84.7102 12.2557C85.9934 12.2557 87.1487 12.5492 88.1761 13.1364C89.2083 13.7187 90.0227 14.5663 90.6193 15.679C91.2206 16.7917 91.5213 18.1411 91.5213 19.7273ZM88.4034 19.7273C88.4034 18.6998 88.2495 17.8333 87.9418 17.1278C87.6387 16.4223 87.2102 15.8873 86.6562 15.5227C86.1023 15.1581 85.4536 14.9759 84.7102 14.9759C83.9669 14.9759 83.3182 15.1581 82.7642 15.5227C82.2102 15.8873 81.7794 16.4223 81.4716 17.1278C81.1686 17.8333 81.017 18.6998 81.017 19.7273C81.017 20.7547 81.1686 21.6212 81.4716 22.3267C81.7794 23.0322 82.2102 23.5672 82.7642 23.9318C83.3182 24.2964 83.9669 24.4787 84.7102 24.4787C85.4536 24.4787 86.1023 24.2964 86.6562 23.9318C87.2102 23.5672 87.6387 23.0322 87.9418 22.3267C88.2495 21.6212 88.4034 20.7547 88.4034 19.7273ZM98.4283 27V12.4545H101.504V24.4645H107.739V27H98.4283ZM112.851 12.4545V27H109.776V12.4545H112.851ZM123.272 16.6378C123.215 16.0649 122.971 15.6198 122.54 15.3026C122.11 14.9853 121.525 14.8267 120.786 14.8267C120.284 14.8267 119.861 14.8977 119.515 15.0398C119.169 15.1771 118.904 15.3688 118.719 15.6151C118.54 15.8613 118.45 16.1406 118.45 16.4531C118.44 16.7135 118.495 16.9408 118.613 17.1349C118.736 17.3291 118.904 17.4972 119.117 17.6392C119.33 17.7765 119.576 17.8973 119.856 18.0014C120.135 18.1009 120.433 18.1861 120.751 18.2571L122.058 18.5696C122.692 18.7116 123.274 18.901 123.805 19.1378C124.335 19.3745 124.794 19.6657 125.183 20.0114C125.571 20.357 125.871 20.7642 126.085 21.233C126.302 21.7017 126.414 22.2391 126.418 22.8452C126.414 23.7353 126.186 24.5071 125.737 25.1605C125.291 25.8092 124.647 26.3134 123.805 26.6733C122.967 27.0284 121.956 27.206 120.772 27.206C119.598 27.206 118.575 27.026 117.704 26.6662C116.837 26.3063 116.16 25.7737 115.673 25.0682C115.19 24.358 114.936 23.4796 114.913 22.4332H117.888C117.922 22.9209 118.061 23.3281 118.308 23.6548C118.558 23.9768 118.892 24.2206 119.309 24.3864C119.73 24.5473 120.206 24.6278 120.737 24.6278C121.257 24.6278 121.71 24.5521 122.093 24.4006C122.481 24.2491 122.782 24.0384 122.995 23.7685C123.208 23.4986 123.315 23.1884 123.315 22.8381C123.315 22.5114 123.218 22.2367 123.023 22.0142C122.834 21.7917 122.555 21.6023 122.185 21.446C121.821 21.2898 121.373 21.1477 120.843 21.0199L119.259 20.6222C118.033 20.3239 117.065 19.8575 116.354 19.223C115.644 18.5885 115.291 17.7339 115.296 16.6591C115.291 15.7784 115.526 15.009 115.999 14.3509C116.478 13.6927 117.133 13.179 117.967 12.8097C118.8 12.4403 119.747 12.2557 120.808 12.2557C121.887 12.2557 122.829 12.4403 123.634 12.8097C124.444 13.179 125.074 13.6927 125.523 14.3509C125.973 15.009 126.205 15.7713 126.219 16.6378H123.272ZM127.933 14.9901V12.4545H139.879V14.9901H135.426V27H132.386V14.9901H127.933Z" fill="white"/>
<circle cx="156" cy="20" r="3" fill="#F2F2F2"/>
</svg>
